<svg version="1" xmlns="http://www.w3.org/2000/svg" width="346.667" height="346.667" viewBox="0 0 260.000000 260.000000"><path d="M75 94.2c-4.3 1.2-8.8 5.2-10.6 9.5-2 4.6-2 46.9 0 51.6 5.3 12.8 24.6 13.7 30.5 1.3 1.8-3.6 2.1-6.1 2.1-17.4V126H79v8h8v8.4c0 6.7-.4 8.8-1.8 10.7-2.3 2.8-7.3 3-10.2.4-1.9-1.7-2-3-2-23.5 0-19.7.2-22 1.8-24.1 4-4.9 12.2-1.7 12.2 4.8v3.3h10v-3.5c0-7.8-5.4-14.7-13-16.4-5.2-1.2-4.5-1.2-9 .1zM119.3 94c-11.1 2.5-15.1 10.8-14 29.3.7 11 2.5 15.2 8 18.6 9.1 5.6 21.4 1.9 25.3-7.6 2.1-4.9 1.9-26.4-.2-30.6-4-7.9-11.1-11.5-19.1-9.7zm8.7 12.2c1.7 1.9 2 3.5 2 12.9 0 8.7-.3 11.1-1.7 12.7-2.7 3.2-6.4 3.7-9.6 1.2-2.7-2.1-2.7-2.3-2.7-13.7 0-9.4.3-12 1.7-13.5 2.3-2.5 7.7-2.4 10.3.4zM152 129.4V165h10.5l-.3-35.2-.2-35.3-5-.3-5-.3v35.5zM174 129.5v35.7l11.4-.4c12.4-.3 14.5-1.1 19-7.2 2-2.6 2.1-4.3 2.4-27.5.3-24.3.3-24.7-2-28-4.5-6.6-6.7-7.6-19.4-8l-11.4-.3v35.7zm21.3-23.3c1.5 1.8 1.7 4.5 1.7 23.3 0 24.8-.3 25.7-8.1 25.9l-4.4.1-.3-25c-.1-13.7 0-25.6.3-26.3.7-2 8.6-.6 10.8 2zM105.7 153.7c-.2.5-.5 2.9-.6 5.5l-.1 4.8h35v-11h-16.9c-9.4 0-17.2.3-17.4.7z"/></svg>